<?xml version="1.0" encoding="UTF-8"?>
<svg width="107px" height="27px" viewBox="0 0 107 27" version="1.1" xmlns="http://www.w3.org/2000/svg" xmlns:xlink="http://www.w3.org/1999/xlink">
    <!-- Generator: Sketch 51.3 (57544) - http://www.bohemiancoding.com/sketch -->
    <title>logo-caritas</title>
    <desc>Created with Sketch.</desc>
    <defs>
        <polygon id="path-1" points="0 0.0225 106.647628 0.0225 106.647628 26.784 0 26.784"></polygon>
    </defs>
    <g id="Page-1" stroke="none" stroke-width="1" fill="none" fill-rule="evenodd">
        <g id="Header-Caritas-Navi,-Ebene-eins+" transform="translate(-145.000000, -17.000000)">
            <g id="logo-caritas" transform="translate(145.000000, 17.000000)">
                <g id="Group-3">
                    <mask id="mask-2" fill="white">
                        <use xlink:href="#path-1"></use>
                    </mask>
                    <g id="Clip-2"></g>
                    <path d="M101.163738,13.0460625 L106.045963,13.0460625 C105.869497,9.018 102.898147,6.6526875 97.8383351,6.6526875 C93.0210942,6.6526875 90.118089,9.12375 90.118089,12.9031875 C90.118089,16.083 92.2076702,17.424 96.631644,18.554625 C99.9581675,19.402875 101.588377,19.296 101.588377,20.92275 C101.588377,22.087125 100.523979,22.7941875 98.5083455,22.7941875 C95.9224188,22.7941875 94.6501832,21.8750625 94.5779162,19.96875 L89.5522775,19.96875 L89.5522775,20.1808125 C89.5522775,24.206625 92.5964555,26.71425 97.8383351,26.71425 C103.607372,26.71425 106.647628,24.418125 106.647628,20.1808125 C106.647628,16.7878125 104.524995,15.5885625 100.173288,14.563125 C96.5974712,13.716 95.0395288,13.5748125 95.0395288,12.267 C95.0395288,11.102625 95.9565916,10.537875 97.8691466,10.537875 C99.9228743,10.537875 101.090351,11.457 101.163738,13.0460625 Z M84.1725864,26.078625 L89.4099843,26.078625 L89.4099843,25.2309375 C88.561267,24.8068125 88.3500681,23.9945625 88.3500681,22.6175625 L88.3500681,11.94975 C88.3500681,8.5595625 85.5165288,6.65325 80.2063037,6.65325 C75.3593717,6.65325 72.5263927,9.018 72.5263927,12.8334375 L72.5263927,13.1866875 L77.2355131,13.1866875 L77.2355131,12.9031875 C77.2355131,11.419875 78.3340838,10.5721875 80.3838901,10.5721875 C82.5462984,10.5721875 83.462801,11.136375 83.462801,12.691125 C83.462801,14.49225 82.1177382,14.2104375 78.2254031,14.8123125 C73.8361623,15.483375 71.8552618,17.1061875 71.8552618,20.779875 C71.8552618,24.6301875 73.9442827,26.749125 77.5548325,26.749125 C80.2796911,26.749125 82.3681518,25.689375 83.6056545,23.7459375 C83.6398272,24.6301875 83.8224555,25.4064375 84.1725864,26.078625 Z M83.5356283,18.626625 C83.5356283,21.2743125 81.8712461,22.8988125 79.1463874,22.8988125 C77.6242984,22.8988125 76.6685812,22.0156875 76.6685812,20.63925 C76.6685812,19.1908125 77.446712,18.590625 79.0388272,18.131625 C79.9951047,17.847 81.6253141,17.7418125 83.5356283,16.8598125 L83.5356283,18.626625 Z M68.6682304,26.325 C69.1998691,26.325 70.1555864,26.254125 71.5353822,26.21925 L71.5353822,22.4398125 L70.2978796,22.4398125 C68.9528168,22.4398125 68.6334974,22.22775 68.6334974,21.2394375 L68.6334974,10.855125 L71.5353822,10.855125 L71.5353822,7.322625 L68.6334974,7.322625 L68.6334974,2.2033125 L63.6420314,2.2033125 L63.6420314,7.322625 L61.1647853,7.322625 L61.1647853,10.855125 L63.6420314,10.855125 L63.6420314,20.9919375 C63.6420314,24.913125 64.5294031,26.325 68.6682304,26.325 Z M54.9027644,26.078625 L59.9284031,26.078625 L59.9284031,7.322625 L54.9027644,7.322625 L54.9027644,26.078625 Z M54.9027644,5.2385625 L59.9284031,5.2385625 L59.9284031,0.6823125 L54.9027644,0.6823125 L54.9027644,5.2385625 Z M51.9616649,11.914875 L53.6266073,11.914875 L53.6266073,6.829875 C53.3806754,6.7933125 53.1291414,6.7933125 52.8826492,6.7933125 C50.4737487,6.7933125 48.7779948,7.95825 47.4676649,10.537875 L47.4676649,7.322625 L42.7932775,7.322625 L42.7932775,26.078625 L47.8228377,26.078625 L47.8228377,16.15275 C47.8228377,13.3273125 49.2373665,11.914875 51.9616649,11.914875 Z M36.176644,26.078625 L41.4134817,26.078625 L41.4134817,25.2309375 C40.5658848,24.8068125 40.3541257,23.9945625 40.3541257,22.6175625 L40.3541257,11.94975 C40.3541257,8.5595625 37.5217068,6.65325 32.2142827,6.65325 C27.3628691,6.65325 24.5304503,9.018 24.5304503,12.8334375 L24.5304503,13.1866875 L29.2384503,13.1866875 L29.2384503,12.9031875 C29.2384503,11.419875 30.3375812,10.5721875 32.3873874,10.5721875 C34.5458743,10.5721875 35.4679791,11.136375 35.4679791,12.691125 C35.4679791,14.49225 34.122356,14.2104375 30.2300209,14.8123125 C25.8396597,15.483375 23.8593194,17.1061875 23.8593194,20.779875 C23.8593194,24.6301875 25.9477801,26.749125 29.5600105,26.749125 C32.2837487,26.749125 34.3727696,25.689375 35.609712,23.7459375 C35.644445,24.6301875 35.8214712,25.4064375 36.176644,26.078625 Z M35.5402461,18.626625 C35.5402461,21.2743125 33.8758639,22.8988125 31.1510052,22.8988125 C29.6289162,22.8988125 28.673199,22.0156875 28.673199,20.63925 C28.673199,19.1908125 29.4507696,18.590625 31.0428848,18.131625 C31.9986021,17.847 33.6282513,17.7418125 35.5402461,16.8598125 L35.5402461,18.626625 Z M5.34551832,13.39875 C5.34551832,7.711875 7.78859162,4.6738125 12.3901518,4.6738125 C15.6472094,4.6738125 17.5928168,6.229125 18.0168953,9.09 L23.1853874,9.09 C22.8302147,3.3688125 18.9384398,0.012375 12.3901518,0.012375 C4.38924084,0.012375 0,4.74525 0,13.39875 C0,21.9105 4.42397382,26.784 11.9313403,26.784 C18.513801,26.784 22.8302147,23.0754375 23.2240419,17.35425 L18.0902827,17.35425 C17.489178,20.3923125 15.3995969,22.051125 12.2131257,22.051125 C7.85749738,22.051125 5.34551832,18.9781875 5.34551832,13.39875 Z" id="Fill-1" fill="#000000" mask="url(#mask-2)"></path>
                </g>
            </g>
        </g>
    </g>
</svg>